<svg width="428" height="660" viewBox="0 0 428 660" fill="none" xmlns="http://www.w3.org/2000/svg">
<path d="M261.224 659.017C353.318 659.017 427.975 645.872 427.975 629.656C427.975 613.44 353.318 600.295 261.224 600.295C169.13 600.295 94.4729 613.44 94.4729 629.656C94.4729 645.872 169.13 659.017 261.224 659.017Z" fill="#44A1BF"/>
<path d="M245.455 621.385H228.837L229.97 607.325H246.494L245.455 621.385Z" fill="#FFAB91"/>
<path d="M296.538 625.727H280.864L282.752 608.152L296.538 610.323V625.727Z" fill="#FFAB91"/>
<path d="M245.455 621.385H228.837L229.97 607.325H246.494L245.455 621.385Z" stroke="#46133C" stroke-width="3" stroke-miterlimit="10" stroke-linecap="round" stroke-linejoin="round"/>
<path d="M296.538 625.727H280.864L282.752 608.152L296.538 610.323V625.727Z" stroke="#46133C" stroke-width="3" stroke-miterlimit="10" stroke-linecap="round" stroke-linejoin="round"/>
<path d="M221.283 433.949C224.399 434.879 211.557 516.243 225.343 607.635C232.708 608.979 244.605 610.426 250.554 607.738C256.314 601.432 256.786 479.438 256.786 471.271C261.79 472.304 264.717 473.648 267.833 477.06C271.799 481.402 276.804 600.295 276.804 609.289C283.319 612.701 297.671 613.218 301.826 611.253C305.603 607.118 312.212 447.595 304.753 428.469C296.727 433.328 264.245 439.325 221.283 433.949Z" fill="#5F235A"/>
<g opacity="0.15">
<path opacity="0.15" d="M221.661 434.672C232.33 435.706 242.245 436.12 251.215 436.016C242.056 435.913 231.953 435.293 221.283 433.949C221.472 433.949 221.566 434.259 221.661 434.672Z" fill="#5F235A"/>
<path opacity="0.15" d="M250.176 471.271C250.176 479.438 249.61 601.432 243.944 607.738C242.245 608.462 239.979 608.876 237.524 609.082C242.528 609.393 247.438 609.186 250.649 607.738C256.125 601.742 256.88 492.051 256.88 473.545C254.992 472.408 252.915 471.787 250.176 471.271Z" fill="#5F235A"/>
<path opacity="0.15" d="M304.847 428.366C303.525 429.193 301.448 430.02 298.899 430.847C299.182 431.984 228.365 434.155 228.837 435.706C232.142 445.217 300.032 438.394 300.221 440.358C304.186 482.643 298.615 607.532 295.216 611.253C294.083 611.77 292.289 612.081 290.117 612.287C295.122 612.597 299.748 612.287 301.826 611.253C305.697 607.015 312.307 447.492 304.847 428.366Z" fill="#5F235A"/>
</g>
<path d="M305.414 430.33C305.225 429.606 305.036 428.883 304.848 428.366C299.182 431.881 281.62 435.81 256.975 436.016C279.542 436.326 296.727 433.432 305.414 430.33Z" fill="#5F235A"/>
<path d="M228.837 607.325C215.712 519.965 224.777 442.84 228.837 434.569C227.137 434.362 223.077 434.155 221.283 433.949C224.399 434.879 211.558 516.243 225.343 607.635C230.348 608.565 237.429 609.496 243.378 609.186C238.751 608.979 232.519 607.945 228.837 607.325Z" fill="white"/>
<path d="M278.881 610.013C280.864 585.614 277.843 480.058 270.005 475.406C266.134 473.132 264.623 471.581 259.619 470.547C259.619 470.857 261.885 471.891 261.885 472.511C264.246 473.442 266.134 474.786 268.023 476.853C271.988 481.195 276.993 600.088 276.993 609.082C281.619 611.46 290.118 612.494 296.161 612.081C290.873 611.977 282.28 611.874 278.881 610.013Z" fill="white"/>
<path d="M221.283 433.949C224.399 434.879 211.557 516.243 225.343 607.635C232.708 608.979 244.605 610.426 250.554 607.738C256.314 601.432 256.786 479.438 256.786 471.271C261.79 472.304 264.717 473.648 267.833 477.06C271.799 481.402 276.804 600.295 276.804 609.289C283.319 612.701 297.671 613.218 301.826 611.253C305.603 607.118 312.212 447.595 304.753 428.469C296.727 433.328 264.245 439.325 221.283 433.949Z" stroke="#46133C" stroke-width="3" stroke-miterlimit="10" stroke-linecap="round" stroke-linejoin="round"/>
<path d="M256.88 471.271L251.404 470.65" stroke="#46133C" stroke-width="3" stroke-miterlimit="10" stroke-linecap="round" stroke-linejoin="round"/>
<path d="M206.742 639.167C206.742 639.167 227.043 640.511 243.944 637.203C251.781 637.203 250.365 618.387 250.365 618.387C250.365 618.387 240.64 621.799 232.519 620.041C224.399 618.284 226.004 617.146 226.004 617.146C226.004 617.146 194.183 622.936 189.934 627.588C185.78 632.137 188.518 639.167 206.742 639.167Z" fill="#75CC9C"/>
<path d="M194.844 629.036C198.905 624.59 220.811 620.558 228.365 619.111C224.965 617.973 226.004 617.25 226.004 617.25C226.004 617.25 194.183 623.039 189.934 627.692C186.535 631.413 187.763 636.789 198.149 638.547C192.389 636.066 190.312 633.998 194.844 629.036Z" fill="white"/>
<path d="M264.906 644.13C265.284 647.542 268.4 655.089 284.357 650.953C295.594 648.058 296.821 640.098 299.087 634.722C301.354 629.346 298.426 620.248 298.426 620.248C298.426 620.248 296.821 623.97 291.817 623.97C284.735 623.97 278.409 619.317 278.409 619.317C278.031 618.594 264.245 637.72 264.906 644.13Z" fill="#75CC9C"/>
<path d="M286.34 649.299C270.477 653.434 268.966 644.13 268.589 640.615C268.117 636.169 274.821 625.314 278.975 619.524C278.692 619.317 278.503 619.214 278.503 619.214C278.125 618.49 264.245 637.617 264.906 644.026C265.284 647.438 268.4 654.985 284.357 650.85C289.267 649.609 292.289 647.335 294.272 644.75C292.572 645.887 288.89 648.679 286.34 649.299Z" fill="white"/>
<path d="M206.742 639.167C206.742 639.167 227.043 640.511 243.944 637.203C251.781 637.203 250.365 618.387 250.365 618.387C250.365 618.387 240.734 621.075 232.519 620.041C229.026 619.628 227.326 618.387 226.476 617.663C226.098 617.353 225.626 617.146 225.154 617.25C220.15 618.18 193.711 623.35 189.934 627.485C185.78 632.137 188.518 639.167 206.742 639.167Z" stroke="#46133C" stroke-width="3" stroke-miterlimit="10" stroke-linecap="round" stroke-linejoin="round"/>
<path d="M264.907 644.13C265.567 647.542 268.4 655.089 284.358 650.953C295.594 648.058 297.766 640.408 299.088 634.722C300.41 629.139 298.427 620.248 298.427 620.248C298.427 620.248 296.821 623.97 291.817 623.97C284.735 623.97 279.353 619.938 279.353 619.938C275.954 621.592 263.018 634.618 264.907 644.13Z" stroke="#46133C" stroke-width="3" stroke-miterlimit="10" stroke-linecap="round" stroke-linejoin="round"/>
<path d="M208.347 619.318C208.347 619.318 212.691 619.938 213.257 624.797" stroke="#46133C" stroke-width="3" stroke-miterlimit="10" stroke-linecap="round" stroke-linejoin="round"/>
<path d="M213.257 617.353C213.257 617.353 217.6 617.974 218.167 622.833" stroke="#46133C" stroke-width="3" stroke-miterlimit="10" stroke-linecap="round" stroke-linejoin="round"/>
<path d="M218.261 615.906C218.261 615.906 222.605 616.526 223.171 621.385" stroke="#46133C" stroke-width="3" stroke-miterlimit="10" stroke-linecap="round" stroke-linejoin="round"/>
<path d="M275.954 634.205C275.954 634.205 279.825 632.034 282.847 635.756" stroke="#46133C" stroke-width="3" stroke-miterlimit="10" stroke-linecap="round" stroke-linejoin="round"/>
<path d="M278.031 630.276C278.031 630.276 281.903 628.105 284.924 631.827" stroke="#46133C" stroke-width="3" stroke-miterlimit="10" stroke-linecap="round" stroke-linejoin="round"/>
<path d="M279.353 626.348C279.353 626.348 283.224 624.177 286.246 627.898" stroke="#46133C" stroke-width="3" stroke-miterlimit="10" stroke-linecap="round" stroke-linejoin="round"/>
<path d="M287.662 433.949C287.662 433.949 294.838 467.135 308.246 467.135" stroke="#46133C" stroke-width="3" stroke-miterlimit="10" stroke-linecap="round" stroke-linejoin="round"/>
<path d="M228.837 435.706C228.837 435.706 226.854 457.417 220.622 459.898" stroke="#46133C" stroke-width="3" stroke-miterlimit="10" stroke-linecap="round" stroke-linejoin="round"/>
<path d="M290.589 385.875H321.371C321.371 385.875 340.728 301.099 285.49 255.713C281.997 251.888 268.872 251.681 268.872 251.681C242.056 260.883 233.463 280.526 233.463 280.526L221.188 256.747C221.188 256.747 206.836 262.123 205.325 287.969C188.235 314.539 159.152 316.814 142.251 298.411C136.68 304.201 121.667 321.466 121.667 321.466C121.667 321.466 137.152 341.523 163.779 344.521C191.634 347.622 211.18 328.083 216.656 321.466C221.188 326.428 229.12 395.903 217.695 429.193C217.128 430.95 217.884 432.915 219.489 433.535C224.304 435.293 235.635 438.084 257.919 437.877C273.782 437.774 302.014 432.294 302.014 432.294L290.589 385.875Z" fill="#EE406D"/>
<path d="M142.251 300.582L126.104 326.118L119.873 320.122L142.251 300.582Z" fill="#EE406D"/>
<path opacity="0.15" d="M256.975 385.875C256.975 385.875 241.961 437.257 251.215 447.802C256.125 453.385 292.383 457.934 295.121 458.968C297.954 460.002 307.963 459.898 307.963 459.898L306.83 439.842L256.975 385.875Z" fill="#5F235A"/>
<path d="M278.409 293.966C278.409 293.966 286.907 313.505 287.662 349.07C288.04 368.816 283.602 385.875 283.602 385.875L289.267 389.286C289.267 389.286 293.705 382.256 293.8 354.653C293.894 329.84 288.229 309.37 278.409 293.966Z" fill="#EE406D"/>
<path d="M227.798 279.595C227.798 279.595 228.648 277.734 230.536 274.839L221.188 256.747C221.188 256.747 219.489 257.367 217.223 259.228L227.798 279.595Z" fill="#EE406D"/>
<path d="M285.49 255.713C283.319 253.335 277.559 252.405 273.499 251.991C276.143 252.612 278.597 253.542 279.825 254.886C335.062 300.272 315.706 385.048 315.706 385.048H284.924L296.349 431.157C296.349 431.157 268.117 436.637 252.253 436.74C242.15 436.843 234.313 436.326 228.27 435.499C234.691 436.74 244.228 437.67 257.919 437.567C273.782 437.464 302.014 431.984 302.014 431.984L290.589 385.875H321.371C321.371 385.875 340.728 301.099 285.49 255.713Z" fill="#EE406D"/>
<path d="M214.484 316.607C209.008 323.224 186.063 346.485 158.397 343.59C160.097 343.901 161.891 344.211 163.779 344.417C187.007 347.002 208.347 329.633 216.656 321.363C215.995 318.778 215.145 317.227 214.484 316.607Z" fill="#EE406D"/>
<path d="M236.863 282.904C236.863 282.904 245.738 262.64 273.31 253.232C273.31 253.232 278.692 253.335 283.602 254.369C278.692 251.888 268.872 251.681 268.872 251.681C247.344 259.022 237.524 273.185 234.596 278.458L236.863 282.904Z" fill="#EE406D"/>
<path d="M142.251 300.582C159.625 319.605 190.312 317.848 207.875 290.554C209.102 269.463 218.072 260.572 221.944 258.195L221.188 256.747C221.188 256.747 206.836 262.123 205.325 287.969C188.235 314.539 159.152 316.814 142.251 298.411C136.68 304.201 121.667 321.466 121.667 321.466C121.667 321.466 121.667 320.329 122.705 321.466C126.86 316.607 137.624 305.338 142.251 300.582Z" fill="white"/>
<path d="M219.489 325.084C219.205 325.395 218.828 325.808 218.544 326.222C222.982 343.487 227.703 400.038 217.695 429.09C217.128 430.847 217.883 432.811 219.489 433.432C219.961 433.638 220.622 433.845 221.188 434.052C232.047 398.901 224.115 330.047 219.489 325.084Z" fill="white"/>
<path d="M290.589 385.875H321.371C321.371 385.875 340.728 301.099 285.49 255.713C281.997 251.888 268.872 251.681 268.872 251.681C242.056 260.883 233.463 280.526 233.463 280.526L221.188 256.747C221.188 256.747 206.836 262.123 205.325 287.969C188.235 314.539 159.152 316.814 142.251 298.411C136.68 304.201 121.667 321.466 121.667 321.466C121.667 321.466 137.152 341.523 163.779 344.521C191.634 347.622 211.18 328.083 216.656 321.466C221.188 326.428 229.12 395.903 217.695 429.193C217.128 430.95 217.884 432.915 219.489 433.535C224.304 435.293 235.635 438.084 257.919 437.877C273.782 437.774 302.014 432.294 302.014 432.294L290.589 385.875Z" stroke="#46133C" stroke-width="3" stroke-miterlimit="10" stroke-linecap="round" stroke-linejoin="round"/>
<path d="M326.942 451.317C305.697 450.8 284.641 449.146 263.49 446.561C257.164 445.734 252.443 439.635 252.726 432.708C253.387 419.165 254.614 405.621 256.22 392.078C257.069 385.151 262.64 380.085 269.061 380.602C289.834 382.153 310.607 384.841 331.475 388.356C337.518 389.39 341.956 395.179 341.767 401.899C341.389 414.512 340.539 427.022 339.312 439.531C338.556 446.355 333.174 451.524 326.942 451.317Z" fill="#FFA45A"/>
<path d="M326.942 451.317C305.697 450.8 284.641 449.146 263.49 446.561C257.164 445.734 252.443 439.635 252.726 432.708C253.387 419.165 254.614 405.621 256.22 392.078C257.069 385.151 262.64 380.085 269.061 380.602C289.834 382.153 310.607 384.841 331.475 388.356C337.518 389.39 341.956 395.179 341.767 401.899C341.389 414.512 340.539 427.022 339.312 439.531C338.556 446.355 333.174 451.524 326.942 451.317Z" fill="#FFA45A"/>
<path d="M256.88 434.155C257.541 420.612 258.769 407.069 260.374 393.525C261.224 386.598 266.795 381.533 273.215 382.049C293.989 383.6 314.762 386.288 335.629 389.803C336.29 389.907 336.951 390.113 337.518 390.32C335.818 388.769 333.741 387.632 331.38 387.219C310.513 383.704 289.74 381.016 268.966 379.465C262.64 378.948 256.975 384.014 256.125 390.941C254.52 404.484 253.387 418.027 252.631 431.571C252.348 437.67 255.842 443.046 261.035 444.907C258.297 442.323 256.691 438.394 256.88 434.155Z" fill="white"/>
<path d="M326.942 451.317C305.697 450.8 284.641 449.146 263.49 446.561C257.164 445.734 252.443 439.635 252.726 432.708C253.387 419.165 254.614 405.621 256.22 392.078C257.069 385.151 262.64 380.085 269.061 380.602C289.834 382.153 310.607 384.841 331.475 388.356C337.518 389.39 341.956 395.179 341.767 401.899C341.389 414.512 340.539 427.022 339.312 439.531C338.556 446.355 333.174 451.524 326.942 451.317Z" stroke="#46133C" stroke-width="3" stroke-miterlimit="10" stroke-linecap="round" stroke-linejoin="round"/>
<path d="M290.589 385.875C302.581 324.154 276.898 291.691 276.898 291.691" stroke="#46133C" stroke-width="3" stroke-miterlimit="10" stroke-linecap="round" stroke-linejoin="round"/>
<path d="M212.501 314.332C212.501 314.332 214.862 315.676 216.656 321.363" stroke="#46133C" stroke-width="4" stroke-miterlimit="10" stroke-linecap="round" stroke-linejoin="round"/>
<path d="M247.343 351.654C247.343 351.654 248.476 358.168 245.549 370.057" stroke="#46133C" stroke-width="3" stroke-miterlimit="10" stroke-linecap="round" stroke-linejoin="round"/>
<path d="M241.584 220.356C241.584 220.356 241.867 233.796 241.867 239.585C241.867 245.375 224.399 264.087 224.399 264.087C224.399 264.087 217.506 252.922 219.961 237.518C222.416 222.113 236.013 220.356 236.013 220.356H241.584Z" fill="#CC1F49"/>
<path d="M226.193 266.776C226.193 259.746 232.803 236.484 223.266 214.566C216.656 199.472 193.711 194.82 180.587 183.241C142.44 149.537 161.419 56.9047 161.419 56.9047C161.419 56.9047 176.621 30.4382 226.287 30.4382C242.811 30.4382 257.447 38.1921 270.855 82.8543C284.169 127.516 271.988 152.329 271.988 152.329C265.001 167.94 258.108 205.675 276.992 241.653L280.958 248.166C280.958 248.166 242.906 265.328 237.996 282.387C233.086 299.342 226.193 266.776 226.193 266.776Z" fill="#FFAB91"/>
<path opacity="0.43" d="M276.898 241.55C258.013 205.572 264.906 167.836 271.894 152.225C271.894 152.225 284.169 127.413 270.761 82.7506C257.447 38.0884 242.717 30.3346 226.193 30.3346C206.364 30.3346 192.012 34.5733 181.908 39.6392C191.351 36.0207 203.531 33.4361 219.206 33.4361C222.888 33.4361 226.476 33.8496 230.064 34.9869C217.789 36.2275 165.479 47.393 161.419 56.9044C161.419 56.9044 167.084 76.0306 188.707 83.6811C203.531 88.9537 219.678 87.2996 233.463 85.8522C238.373 87.5063 239.129 104.048 267.456 113.146C277.937 116.557 263.49 162.46 261.224 176.21C259.052 189.237 260.563 215.497 265.945 229.35C269.439 238.448 265.756 236.691 258.391 242.273C256.125 243.927 246.305 250.854 245.738 251.785C238.562 262.33 246.211 258.918 231.481 283.834C233.558 287.969 235.918 289.52 237.901 282.387C242.717 265.328 280.864 248.166 280.864 248.166L276.898 241.55Z" fill="#FFAB91"/>
<path d="M228.742 269.464C228.742 261.916 237.618 238.138 227.421 214.67C220.339 198.542 197.866 192.752 183.891 180.346C150.466 150.881 159.625 79.3389 163.402 54.1131C162.08 55.7672 161.513 56.8011 161.513 56.8011C161.513 56.8011 142.534 149.537 180.681 183.137C193.806 194.716 216.751 199.369 223.36 214.463C232.897 236.484 226.287 259.642 226.287 266.672C226.287 266.672 228.176 276.494 229.97 280.009C227.893 274.012 228.742 269.464 228.742 269.464Z" fill="white"/>
<path d="M226.193 266.776C226.193 259.746 232.803 236.484 223.266 214.566C216.656 199.472 193.711 194.82 180.587 183.241C142.44 149.537 161.419 56.9047 161.419 56.9047C161.419 56.9047 176.621 30.4382 226.287 30.4382C242.811 30.4382 257.447 38.1921 270.855 82.8543C284.169 127.516 271.988 152.329 271.988 152.329C265.001 167.94 258.108 205.675 276.992 241.653L280.958 248.166C280.958 248.166 242.906 265.328 237.996 282.387C233.086 299.342 226.193 266.776 226.193 266.776Z" stroke="#46133C" stroke-width="3" stroke-miterlimit="10" stroke-linecap="round" stroke-linejoin="round"/>
<path d="M184.93 118.935C184.93 118.935 185.308 129.067 178.793 138.165C180.492 142.817 188.613 142.093 188.613 142.093" stroke="#46133C" stroke-width="3" stroke-miterlimit="10" stroke-linecap="round" stroke-linejoin="round"/>
<path d="M181.342 154.293C181.248 155.017 194.184 159.152 201.36 150.158C197.583 160.082 192.39 164.425 180.681 164.425" fill="#FF5757"/>
<path d="M175.866 152.639C175.771 153.362 194.184 159.152 201.265 150.158C197.488 160.082 192.295 164.425 180.587 164.425" stroke="#46133C" stroke-width="3" stroke-miterlimit="10" stroke-linecap="round" stroke-linejoin="round"/>
<path d="M180.587 164.425C180.587 164.425 183.892 159.049 180.587 154.293" stroke="#46133C" stroke-width="3" stroke-miterlimit="10" stroke-linecap="round" stroke-linejoin="round"/>
<path opacity="0.71" d="M217.223 132.065L201.737 129.791C195.883 128.964 191.823 122.244 192.578 114.903L193.522 106.322C194.278 98.9821 199.66 93.5026 205.514 94.123L220.999 95.7771C227.137 96.3974 231.575 103.221 230.725 110.871L229.781 119.866C229.025 127.516 223.36 132.996 217.223 132.065Z" fill="white"/>
<path opacity="0.71" d="M172.277 128.964L154.809 127.723C148.2 127.309 143.195 120.589 143.478 112.939L143.856 103.945C144.234 96.1907 149.805 90.1944 156.414 90.4011L173.883 91.0214C180.776 91.2282 186.252 97.9482 185.874 106.012L185.497 115.42C185.119 123.381 179.17 129.481 172.277 128.964Z" fill="white"/>
<path d="M204.476 118.935C206.092 118.935 207.403 116.343 207.403 113.146C207.403 109.948 206.092 107.356 204.476 107.356C202.859 107.356 201.549 109.948 201.549 113.146C201.549 116.343 202.859 118.935 204.476 118.935Z" fill="#46133C"/>
<path d="M175.866 115.524C177.482 115.524 178.793 112.932 178.793 109.734C178.793 106.537 177.482 103.945 175.866 103.945C174.249 103.945 172.938 106.537 172.938 109.734C172.938 112.932 174.249 115.524 175.866 115.524Z" fill="#46133C"/>
<path d="M226.193 222.94C226.193 222.94 214.579 239.275 221.188 256.747C225.91 269.153 228.27 279.078 233.463 287.246C239.695 278.768 245.361 260.572 263.018 252.612C280.58 244.755 278.314 240.102 278.314 237.414C278.314 234.933 275.293 228.006 271.327 228.006" stroke="#46133C" stroke-width="3" stroke-miterlimit="10" stroke-linecap="round" stroke-linejoin="round"/>
<path d="M250.554 274.426C250.554 274.426 241.867 285.592 241.867 321.363" stroke="#46133C" stroke-width="3" stroke-miterlimit="10" stroke-linecap="round" stroke-linejoin="round"/>
<path d="M226.193 266.776C226.193 266.776 222.133 293.552 226.193 297.998" stroke="#46133C" stroke-width="3" stroke-miterlimit="10" stroke-linecap="round" stroke-linejoin="round"/>
<path d="M32.6258 178.692C32.6258 178.692 27.2437 184.998 30.6429 194.51C34.9864 206.399 32.6258 209.397 30.6429 215.29" stroke="#46133C" stroke-width="3" stroke-miterlimit="10" stroke-linecap="round" stroke-linejoin="round"/>
<path d="M244.795 77.1691C246.967 79.547 238.752 84.8196 250.744 97.9494C262.83 111.183 268.118 111.493 268.118 121.935C268.118 132.377 269.345 157.086 278.316 161.531C287.286 165.977 307.776 131.446 304.943 96.3987C303.054 74.2743 294.556 56.182 284.831 48.9451C280.582 23.8226 256.126 8.31485 237.619 4.90316C209.765 -0.162697 193.996 17.2059 192.674 15.7586C182.476 19.1703 174.261 19.6872 168.03 18.9635C158.493 17.9296 150.75 27.3376 152.639 37.5727V37.6761C156.51 58.0429 171.618 68.6915 176.15 71.8965C185.403 78.4097 193.996 80.2706 196.356 80.7876C205.61 82.5451 213.73 81.2011 220.906 80.0639C234.409 77.8928 242.34 74.3777 244.795 77.1691Z" fill="#6D524E"/>
<path d="M244.795 77.1691C246.967 79.547 238.752 84.8196 250.744 97.9494C262.83 111.183 268.118 111.493 268.118 121.935C268.118 132.377 269.345 157.086 278.316 161.531C287.286 165.977 307.776 131.446 304.943 96.3987C303.054 74.2743 294.556 56.182 284.831 48.9451C280.582 23.8226 256.126 8.31485 237.619 4.90316C209.765 -0.162697 193.996 17.2059 192.674 15.7586C182.476 19.1703 174.261 19.6872 168.03 18.9635C158.493 17.9296 150.75 27.3376 152.639 37.5727V37.6761C156.51 58.0429 171.618 68.6915 176.15 71.8965C185.403 78.4097 193.996 80.2706 196.356 80.7876C205.61 82.5451 213.73 81.2011 220.906 80.0639C234.409 77.8928 242.34 74.3777 244.795 77.1691Z" fill="#5F2E50"/>
<g opacity="0.34">
<path opacity="0.34" d="M284.263 46.566C282.564 38.9155 278.976 32.2989 274.254 26.6127C277.37 31.5752 279.731 37.2614 280.77 43.4644C281.903 44.2915 283.13 45.3254 284.263 46.566Z" fill="#5F2E50"/>
<path opacity="0.34" d="M246.116 71.5851C243.661 68.8971 230.347 72.4122 216.845 74.6867C209.669 75.9273 201.643 77.2713 192.295 75.4104C189.934 74.9968 181.342 73.1359 172.088 66.5193C169.728 64.8651 164.346 61.0399 159.341 54.9402C165.29 64.4516 173.033 69.931 176.149 72.102C185.402 78.6153 193.995 80.4762 196.355 80.9931C205.609 82.7507 213.729 81.4067 220.905 80.2694C229.781 78.8221 236.296 76.7544 240.356 76.3408C248.288 75.9273 246.966 72.5156 246.116 71.5851Z" fill="#5F2E50"/>
<path opacity="0.34" d="M246.777 92.3654C246.588 92.1586 246.399 91.8485 246.116 91.6417C247.155 93.5027 248.666 95.5703 250.743 97.8448C256.125 103.738 260.185 107.149 263.018 109.941C260.941 104.978 255.747 102.29 246.777 92.3654Z" fill="#5F2E50"/>
<path opacity="0.34" d="M304.847 96.3974C303.336 78.0983 297.199 62.4872 289.645 53.5961C295.31 62.7974 299.654 75.8239 300.881 90.8146C303.809 125.759 283.224 160.289 274.254 155.947C273.782 155.74 273.404 155.43 273.027 155.12C274.349 158.118 276.143 160.393 278.314 161.426C287.284 165.872 307.774 131.341 304.847 96.3974Z" fill="#5F2E50"/>
</g>
<path d="M156.981 42.4306V42.3272C155.092 32.0921 162.835 22.5807 172.372 23.7179C178.604 24.4416 185.591 22.5807 195.789 19.169C199.093 16.9979 213.351 4.17822 241.206 9.34746C251.498 11.2084 264.434 17.3081 273.876 26.1992C263.962 14.5167 249.515 7.17638 237.524 5.0053C209.669 -0.060555 193.9 17.3081 192.578 15.8607C182.381 19.2724 174.166 19.7893 167.934 19.0656C158.397 18.0318 150.654 27.4398 152.543 37.6749V37.7783C154.998 50.9081 162.174 60.006 168.217 65.6922C163.496 60.1094 158.869 52.4589 156.981 42.4306Z" fill="white"/>
<path d="M289.173 53.6995C289.645 54.1131 290.117 54.4232 290.684 54.8368C290.117 54.1131 289.645 53.4927 289.079 52.8724C289.079 53.1826 289.079 53.3894 289.173 53.6995Z" fill="#5F2E50"/>
<path d="M187.952 17.5149C181.436 19.7893 173.316 19.5826 167.934 18.9622C158.397 17.9284 150.654 27.3364 152.543 37.5715V37.6749C156.414 58.0417 171.522 68.6903 176.054 71.8952C185.308 78.4085 193.9 80.2694 196.261 80.7863C205.514 82.5439 213.635 81.1999 220.811 80.0626C234.408 77.7882 242.245 74.2731 244.794 76.9611C246.966 79.3389 238.751 84.6116 250.743 97.7414C262.829 110.975 268.117 111.285 268.117 121.727C268.117 132.169 269.344 156.877 278.314 161.323C287.285 165.769 307.774 131.238 304.942 96.1906C303.053 74.0663 294.555 55.974 284.83 48.7371C280.581 23.6146 256.125 8.10684 237.618 4.69515C209.763 -0.370705 199.471 11.9321 193.334 15.0336" stroke="#46133C" stroke-width="3" stroke-miterlimit="10" stroke-linecap="round" stroke-linejoin="round"/>
<path d="M261.318 67.2429C260.279 67.5531 249.232 63.9346 245.738 77.3746" stroke="#46133C" stroke-width="3" stroke-miterlimit="10" stroke-linecap="round" stroke-linejoin="round"/>
<path d="M267.928 218.081C267.928 218.081 274.538 208.983 284.83 220.356C295.216 231.728 302.015 231.935 309.757 243.927C318.633 257.678 318.633 276.7 309.663 279.078C307.491 279.699 301.637 269.774 296.066 263.364C290.495 256.954 282.091 252.819 278.409 256.747C274.726 260.676 260.469 274.426 248.76 261.606C238.751 250.647 278.315 245.582 278.315 237.518C278.315 229.35 270.1 229.143 267.928 218.081Z" fill="#FF3B61"/>
<path d="M274.632 253.335C269.344 260.779 257.541 262.95 247.91 260.572C248.099 260.883 248.382 261.296 248.76 261.606C260.468 274.426 276.52 258.815 280.203 254.783C281.997 252.819 291.345 256.747 296.066 263.364C292.572 253.025 277.559 249.2 274.632 253.335Z" fill="#FF3B61"/>
<path d="M309.757 243.927C302.015 231.935 295.216 231.728 284.83 220.356C281.714 216.944 279.07 215.393 276.709 214.876C286.812 225.628 293.517 226.042 301.07 237.828C309.191 250.441 309.852 267.706 302.864 272.152C305.886 276.184 308.341 279.388 309.663 279.078C318.633 276.597 318.633 257.574 309.757 243.927Z" fill="#FF3B61"/>
<path d="M267.928 218.081C267.928 218.081 274.538 208.983 284.83 220.356C295.216 231.728 302.015 231.935 309.757 243.927C318.633 257.678 318.633 276.7 309.663 279.078C307.491 279.699 301.637 269.774 296.066 263.364C290.495 256.954 282.091 252.819 278.409 256.747C274.726 260.676 260.469 274.426 248.76 261.606C238.751 250.647 278.315 245.582 278.315 237.518C278.315 229.35 270.1 229.143 267.928 218.081Z" stroke="#46133C" stroke-width="3" stroke-miterlimit="10" stroke-linecap="round" stroke-linejoin="round"/>
<path d="M279.353 451.317C274.16 448.216 279.542 436.533 279.542 436.533C277.559 438.704 273.971 439.428 269.344 439.428C264.717 439.428 265.85 435.293 271.61 429.09C277.37 422.783 280.958 420.922 284.074 419.165C293.327 414.099 291.628 405.208 291.628 405.208L314.195 404.484C314.195 404.484 310.89 415.029 312.023 417.51C318.538 432.294 307.585 447.699 306.83 449.456C305.603 452.248 300.126 453.902 297.199 452.248C292.572 455.039 286.246 452.351 285.962 451.731C283.791 453.075 280.769 452.248 279.353 451.317Z" fill="#FFAB91"/>
<path d="M279.353 451.317C274.16 448.216 279.542 436.533 279.542 436.533C277.559 438.704 273.971 439.428 269.344 439.428C264.717 439.428 265.85 435.293 271.61 429.09C277.37 422.783 280.958 420.922 284.074 419.165C293.327 414.099 291.628 405.208 291.628 405.208L314.195 404.484C314.195 404.484 310.89 415.029 312.023 417.51C318.538 432.294 307.585 447.699 306.83 449.456C305.603 452.248 300.126 453.902 297.199 452.248C292.572 455.039 286.246 452.351 285.962 451.731C283.791 453.075 280.769 452.248 279.353 451.317Z" fill="#FFAB91"/>
<path d="M270.762 432.191C276.994 425.368 281.62 423.61 287.663 420.095C295.973 415.236 294.839 406.862 294.651 404.588L291.724 405.311C291.724 405.311 293.423 414.202 284.17 419.268C281.054 421.026 277.466 422.887 271.706 429.193C265.946 435.5 264.813 439.532 269.44 439.532C268.307 437.671 266.985 436.223 270.762 432.191Z" fill="white"/>
<g opacity="0.43">
<path opacity="0.43" d="M272.649 437.257C271.704 438.291 270.383 439.014 268.777 439.531C268.966 439.531 269.155 439.531 269.344 439.531C270.194 439.531 270.949 439.531 271.704 439.428C272.271 438.084 272.649 437.257 272.649 437.257Z" fill="#FFAB91"/>
<path opacity="0.43" d="M314.195 404.587L308.813 404.794C307.963 407.792 305.886 416.373 306.83 418.544C313.723 434.155 304.753 454.936 299.559 453.075C302.392 453.282 305.791 451.731 306.735 449.663C307.491 447.906 318.444 432.501 311.929 417.717C310.89 415.133 314.195 404.587 314.195 404.587Z" fill="#FFAB91"/>
</g>
<path d="M279.353 451.317C274.16 448.216 279.542 436.533 279.542 436.533C277.559 438.704 273.782 440.979 269.344 439.428C266.795 438.498 265.851 435.293 271.61 429.09C277.37 422.783 280.958 420.922 284.074 419.165C293.328 414.099 291.628 405.208 291.628 405.208L314.195 404.484C314.195 404.484 310.89 415.029 312.023 417.51C318.539 432.294 307.586 447.699 306.83 449.456C305.603 452.248 300.126 453.902 297.199 452.248C292.572 455.039 286.246 452.351 285.963 451.731C283.791 453.075 280.769 452.248 279.353 451.317Z" stroke="#46133C" stroke-width="3" stroke-miterlimit="10" stroke-linecap="round" stroke-linejoin="round"/>
<path d="M287.662 447.389C287.662 447.389 287.379 449.456 285.962 451.834" stroke="#46133C" stroke-width="3" stroke-miterlimit="10" stroke-linecap="round" stroke-linejoin="round"/>
<path d="M298.049 446.872C298.049 446.872 297.199 449.663 297.199 452.351" stroke="#46133C" stroke-width="3" stroke-miterlimit="10" stroke-linecap="round" stroke-linejoin="round"/>
<path d="M286.057 385.875C286.057 385.875 294.933 381.429 308.152 383.6C321.371 385.875 324.676 385.875 324.676 385.875L320.805 404.587C320.805 404.587 288.323 404.587 286.057 404.587C283.791 404.587 286.057 401.486 286.057 401.486V385.875Z" fill="#FF3B61"/>
<path d="M290.117 401.486V385.875C290.117 385.875 294.933 383.497 302.77 383.083C292.572 382.566 286.057 385.875 286.057 385.875V401.486C286.057 401.486 283.791 404.587 286.057 404.587C286.529 404.587 287.946 404.587 290.117 404.587C287.851 404.587 290.117 401.486 290.117 401.486Z" fill="white"/>
<path d="M286.057 385.875C286.057 385.875 294.933 381.429 308.152 383.6C321.371 385.875 324.676 385.875 324.676 385.875L320.805 404.587C320.805 404.587 288.323 404.587 286.057 404.587C283.791 404.587 286.057 401.486 286.057 401.486V385.875Z" stroke="#46133C" stroke-width="3" stroke-miterlimit="10" stroke-linecap="round" stroke-linejoin="round"/>
<path d="M155.281 106.322L143.856 104.772" stroke="#46133C" stroke-width="3" stroke-miterlimit="10" stroke-linecap="round" stroke-linejoin="round"/>
<path d="M172.277 128.964L154.809 127.723C148.2 127.309 143.195 120.589 143.478 112.939L143.856 103.945C144.234 96.1907 149.805 90.1944 156.414 90.4011L173.883 91.0214C180.776 91.2282 186.252 97.9482 185.874 106.012L185.497 115.42C185.119 123.381 179.17 129.481 172.277 128.964Z" stroke="#46133C" stroke-width="3" stroke-miterlimit="10" stroke-linecap="round" stroke-linejoin="round"/>
<path d="M217.223 132.065L201.737 129.791C195.883 128.964 191.823 122.244 192.578 114.903L193.522 106.322C194.278 98.9821 199.66 93.5026 205.514 94.123L220.999 95.7771C227.137 96.3974 231.575 103.221 230.725 110.871L229.781 119.866C229.025 127.516 223.36 132.996 217.223 132.065Z" stroke="#46133C" stroke-width="3" stroke-miterlimit="10" stroke-linecap="round" stroke-linejoin="round"/>
<path d="M263.49 109.734L230.631 106.012" stroke="#46133C" stroke-width="3" stroke-miterlimit="10" stroke-linecap="round" stroke-linejoin="round"/>
<path d="M186.346 106.116C186.346 106.116 190.123 103.738 193.05 106.322" stroke="#46133C" stroke-width="4" stroke-miterlimit="10" stroke-linecap="round" stroke-linejoin="round"/>
<path d="M258.674 116.247C258.674 116.247 263.868 106.012 268.589 111.181C273.31 116.351 272.743 128.55 266.984 139.509C262.923 147.056 256.786 143.748 258.769 139.509" fill="#FFAB91"/>
<path d="M258.674 116.247C258.674 116.247 263.868 106.012 268.589 111.181C273.31 116.351 272.743 128.55 266.984 139.509C262.923 147.056 256.786 143.748 258.769 139.509" fill="#FFAB91"/>
<path opacity="0.43" d="M268.494 111.181C266.039 108.493 263.584 109.941 261.696 111.802C262.735 111.698 263.773 112.112 264.812 113.249C269.533 118.418 268.967 130.618 263.207 141.577C262.735 142.507 262.168 143.334 261.602 143.954C263.301 143.851 265.284 142.507 266.889 139.406C272.649 128.55 273.216 116.351 268.494 111.181Z" fill="#FFAB91"/>
<path d="M258.958 114.593C258.958 114.593 263.773 106.012 268.494 111.181C273.215 116.351 272.649 128.55 266.889 139.509C262.829 147.056 255.936 144.678 255.936 138.268" stroke="#46133C" stroke-width="3" stroke-miterlimit="10" stroke-linecap="round" stroke-linejoin="round"/>
<path d="M241.867 329.53C243.901 329.53 245.55 327.447 245.55 324.878C245.55 322.308 243.901 320.225 241.867 320.225C239.833 320.225 238.185 322.308 238.185 324.878C238.185 327.447 239.833 329.53 241.867 329.53Z" fill="#46133C"/>
<path d="M241.867 329.53C243.901 329.53 245.55 327.447 245.55 324.878C245.55 322.308 243.901 320.225 241.867 320.225C239.833 320.225 238.185 322.308 238.185 324.878C238.185 327.447 239.833 329.53 241.867 329.53Z" stroke="#46133C" stroke-width="4" stroke-miterlimit="10" stroke-linecap="round" stroke-linejoin="round"/>
<path d="M226.193 305.545C228.227 305.545 229.875 303.462 229.875 300.892C229.875 298.323 228.227 296.24 226.193 296.24C224.159 296.24 222.51 298.323 222.51 300.892C222.51 303.462 224.159 305.545 226.193 305.545Z" fill="#46133C"/>
<path d="M226.193 305.545C228.227 305.545 229.875 303.462 229.875 300.892C229.875 298.323 228.227 296.24 226.193 296.24C224.159 296.24 222.51 298.323 222.51 300.892C222.51 303.462 224.159 305.545 226.193 305.545Z" stroke="#46133C" stroke-width="4" stroke-miterlimit="10" stroke-linecap="round" stroke-linejoin="round"/>
<path d="M248.76 270.601C248.76 270.601 252.442 271.324 253.953 275.46" stroke="#46133C" stroke-width="3" stroke-miterlimit="10" stroke-linecap="round" stroke-linejoin="round"/>
<path d="M261.224 127.93C261.224 127.93 262.074 122.244 265.851 121.003" stroke="#46133C" stroke-width="3" stroke-miterlimit="10" stroke-linecap="round" stroke-linejoin="round"/>
<path d="M201.36 48.5303C201.36 48.5303 200.415 48.5303 198.905 47.91C198.149 47.5998 197.299 47.1863 196.261 46.566C195.317 45.9457 194.184 45.3254 193.05 44.4983C192.484 44.0848 191.823 43.6712 191.256 43.2577C190.69 42.8441 190.029 42.3272 189.368 41.9137C188.046 40.9832 186.724 39.846 185.402 38.7088C184.741 38.0884 184.08 37.5715 183.325 36.9512C182.664 36.3309 182.003 35.7106 181.342 35.0903C180.02 33.8497 178.698 32.4023 177.376 31.0583C176.715 30.3346 176.054 29.6109 175.488 28.9906C174.827 28.2669 174.26 27.5432 173.599 26.8195C172.372 25.3721 171.239 23.9247 170.106 22.4774C169.067 21.03 168.028 19.5826 167.084 18.2386C166.14 16.8946 165.29 15.5506 164.535 14.4133C163.779 13.1727 163.118 12.0355 162.552 11.0016C161.985 9.96779 161.513 9.03732 161.135 8.31362C160.38 6.76285 160.002 5.8324 160.002 5.8324C159.908 5.62563 160.002 5.41886 160.191 5.41886C160.286 5.31548 160.474 5.41885 160.569 5.52224C160.569 5.52224 161.23 6.24593 162.269 7.58993C162.741 8.21024 163.402 9.03732 164.063 9.96779C164.724 10.8982 165.573 11.9321 166.329 13.0693C167.179 14.2066 168.028 15.4472 168.973 16.7912C169.917 18.0318 170.955 19.4792 172.089 20.8232C173.222 22.1672 174.355 23.6146 175.582 24.9586C176.149 25.6823 176.81 26.3026 177.376 27.0263C178.037 27.75 178.604 28.3703 179.265 29.094C179.926 29.8177 180.587 30.438 181.153 31.0583C181.814 31.6786 182.381 32.4023 183.136 33.0226C183.797 33.6429 184.458 34.2632 185.119 34.8835C185.78 35.5038 186.441 36.0208 187.102 36.6411C187.763 37.2614 188.424 37.7783 188.99 38.2952C189.651 38.8121 190.218 39.3291 190.879 39.846C191.54 40.3629 192.106 40.7765 192.673 41.2934C193.239 41.7069 193.806 42.1204 194.372 42.534C195.505 43.3611 196.544 43.9814 197.394 44.6017C198.338 45.222 199.093 45.7389 199.754 46.2558C201.076 47.2897 201.643 48.1168 201.643 48.1168C201.737 48.2201 201.737 48.4269 201.549 48.6337C201.454 48.5303 201.454 48.5303 201.36 48.5303Z" fill="#46133C"/>
<path d="M228.742 55.4571C228.742 55.4571 228.459 55.974 227.798 56.2842C227.515 56.4909 227.137 56.4909 226.665 56.4909C226.193 56.4909 225.721 56.5943 225.154 56.5943C222.983 56.6977 220.15 56.6977 217.223 56.2842C215.806 56.0774 214.39 55.7672 213.068 55.4571C212.407 55.2503 211.746 55.0435 211.18 54.9401C210.613 54.7334 210.047 54.5266 209.48 54.3198C209.008 54.1131 208.536 53.9063 208.064 53.8029C207.686 53.5961 207.308 53.286 207.12 53.0792C206.931 52.7691 206.742 52.4589 206.647 52.2521C206.553 52.0454 206.553 51.8386 206.553 51.8386C206.553 51.8386 206.647 51.7352 206.931 51.6318C207.12 51.5285 207.403 51.4251 207.78 51.3217C208.158 51.2183 208.536 51.2183 208.914 51.3217C209.291 51.4251 209.763 51.5284 210.235 51.7352C210.708 51.8386 211.274 52.0454 211.841 52.1488C212.407 52.2521 212.974 52.4589 213.635 52.5623C214.296 52.6657 214.957 52.8725 215.618 52.9758C216.279 53.0792 216.94 53.1826 217.6 53.286C218.922 53.4928 220.339 53.6995 221.566 53.8029C222.888 53.9063 224.021 54.0097 225.06 54.1131C225.532 54.1131 226.004 54.1131 226.476 54.1131C226.854 54.1131 227.232 54.1131 227.609 54.3198C227.893 54.4232 228.176 54.63 228.365 54.7334C228.554 54.8368 228.648 54.9401 228.648 54.9401C228.837 55.0435 228.837 55.3537 228.742 55.4571Z" fill="#46133C"/>
<path d="M248.288 43.2576C248.288 43.2576 246.966 43.9813 244.605 44.3949C243.378 44.6017 241.962 44.705 240.262 44.6016C238.562 44.4983 236.674 44.3949 234.691 44.1881C232.614 43.9813 230.442 43.5678 228.081 43.0509C225.815 42.534 223.36 41.9137 220.905 41.0866C219.678 40.673 218.45 40.1561 217.223 39.7426C215.995 39.2256 214.768 38.7087 213.446 38.0884C212.218 37.4681 210.991 36.9512 209.763 36.2275C209.197 35.9173 208.536 35.6072 207.969 35.1936L206.175 34.0564C203.815 32.609 201.454 30.9549 199.282 29.1973C198.149 28.3703 197.111 27.4398 196.072 26.6127C195.033 25.6822 194.089 24.7518 193.051 23.9247C191.162 22.0638 189.274 20.2029 187.668 18.3419C186.819 17.4115 186.063 16.481 185.308 15.6539C184.552 14.7235 183.797 13.8964 183.231 13.0693C181.909 11.3118 180.681 9.761 179.831 8.21023C178.887 6.76284 178.037 5.41883 177.471 4.2816C176.243 2.00714 175.677 0.663137 175.677 0.663137C175.582 0.456367 175.677 0.146207 175.866 0.0428221C176.054 -0.0605627 176.243 0.0428284 176.338 0.146213C176.338 0.146213 177.282 1.28345 178.793 3.24776C179.548 4.2816 180.492 5.41883 181.531 6.86622C182.57 8.31361 183.797 9.76099 185.025 11.4151C185.686 12.2422 186.441 13.0693 187.102 13.8964C187.857 14.7235 188.613 15.6539 189.462 16.481C191.068 18.2385 192.862 19.9961 194.75 21.857C195.694 22.6841 196.733 23.6145 197.677 24.4416C198.716 25.2687 199.755 26.0958 200.793 26.9229C202.965 28.577 205.231 30.1278 207.497 31.4718C208.63 32.1955 209.858 32.8158 210.991 33.5395C212.124 34.1598 213.351 34.7801 214.579 35.4004C215.806 36.0207 216.94 36.4343 218.167 36.9512C219.395 37.3647 220.528 37.8816 221.755 38.2952C224.116 39.1222 226.476 39.8459 228.648 40.3629C230.914 40.8798 232.991 41.2933 234.974 41.6035C236.957 41.9137 238.751 42.1204 240.356 42.2238C241.962 42.3272 243.378 42.4306 244.511 42.534C246.872 42.8441 248.194 43.1543 248.194 43.1543C248.288 43.0509 248.288 43.1543 248.288 43.2576C248.288 43.1543 248.288 43.2576 248.288 43.2576Z" fill="#46133C"/>
<path d="M99.8549 258.195C102.215 241.756 82.5755 235.243 74.8328 242.17C70.9615 264.604 54.9095 278.561 74.1718 287.246C85.6915 292.415 86.4469 284.248 92.4899 290.968C100.516 299.755 106.276 303.27 106.276 303.27L122.8 287.246C118.834 284.041 97.5888 273.909 99.8549 258.195Z" fill="#FFAB91"/>
<path opacity="0.43" d="M96.078 289.003C89.0907 280.009 87.3911 284.144 79.0819 281.146C59.8196 274.012 71.528 262.227 76.3436 241.033C75.7771 241.343 75.3049 241.756 74.8328 242.067C70.9615 264.501 54.9095 278.458 74.1718 287.142C85.6915 292.312 86.4469 284.144 92.4899 290.864C100.516 299.652 106.276 303.167 106.276 303.167L109.108 300.376C108.07 299.859 102.876 297.791 96.078 289.003Z" fill="#FFAB91"/>
<path d="M97.6834 257.161C96.5503 273.806 115.435 284.868 124.688 289.003L122.8 287.246C118.929 284.041 97.5889 273.909 99.8551 258.195C102.121 242.79 83.5199 236.07 74.833 242.17C82.2924 237.207 98.5332 243.1 97.6834 257.161Z" fill="white"/>
<path d="M99.855 258.195C102.216 241.756 82.5756 235.243 74.8329 242.17C68.601 247.236 54.9096 278.561 74.1719 287.246C85.6915 292.415 86.4469 284.248 92.49 290.968C100.516 299.755 106.276 303.27 106.276 303.27L122.8 287.246C118.834 284.041 97.5888 273.909 99.855 258.195Z" stroke="#46133C" stroke-width="3" stroke-miterlimit="10" stroke-linecap="round" stroke-linejoin="round"/>
<path d="M61.1416 232.038H48.3945V239.379H61.1416C64.1632 239.379 66.6182 242.48 66.6182 246.202V257.988C66.6182 261.813 64.1632 264.811 61.1416 264.811H48.3945V272.151H61.1416C67.3736 272.151 72.378 265.845 72.378 257.988V246.202C72.378 238.345 67.3736 232.038 61.1416 232.038Z" fill="#A8DDEF"/>
<path opacity="0.42" d="M61.1416 232.038H48.3945V239.379H61.1416C64.1632 239.379 66.6182 242.48 66.6182 246.202V257.988C66.6182 261.813 64.1632 264.811 61.1416 264.811H48.3945V272.151H61.1416C67.3736 272.151 72.378 265.845 72.378 257.988V246.202C72.378 238.345 67.3736 232.038 61.1416 232.038Z" fill="#939EC5"/>
<path d="M61.1416 232.038H48.3945V239.379H60.0086C63.0301 239.379 65.4851 242.48 65.4851 246.202V257.988C65.4851 261.813 63.0301 264.811 60.0086 264.811H48.3945V272.151H61.1416C67.3736 272.151 72.378 265.845 72.378 257.988V246.202C72.378 238.345 67.3736 232.038 61.1416 232.038Z" stroke="#46133C" stroke-width="3" stroke-miterlimit="10" stroke-linecap="round" stroke-linejoin="round"/>
<path d="M3.9212 220.459C1.18293 232.762 1.37179 247.029 4.48774 259.332C7.03716 269.05 11.7583 276.39 16.4795 281.146H43.2012C48.0167 276.494 52.7379 269.153 55.1929 259.332C58.4033 247.029 58.4977 232.762 55.7594 220.459H3.9212Z" fill="#A8DDEF"/>
<path d="M3.9212 220.459C1.18293 232.762 1.37179 247.029 4.48774 259.332C7.03716 269.05 11.7583 276.39 16.4795 281.146H43.2012C48.0167 276.494 52.7379 269.153 55.1929 259.332C58.4033 247.029 58.4977 232.762 55.7594 220.459H3.9212Z" fill="#A8DDEF"/>
<path d="M7.79358 259.435C4.5832 247.133 4.48877 232.866 7.22703 220.563H4.01666C1.27839 232.866 1.46724 247.133 4.5832 259.435C7.13262 269.154 11.8538 276.494 16.5749 281.25H19.7853C15.0641 276.494 10.2486 269.154 7.79358 259.435Z" fill="white"/>
<path opacity="0.42" d="M55.9483 220.459H47.0725C49.7164 233.692 50.0941 250.751 47.0725 261.813C44.9008 269.67 39.141 280.422 33.0979 281.146H43.2956C48.1112 276.494 52.8323 269.153 55.2873 259.332C58.4977 247.029 58.5921 232.762 55.9483 220.459Z" fill="#939EC5"/>
<path d="M3.9212 220.459C1.18293 232.762 1.37179 247.029 4.48774 259.332C7.03716 269.05 11.7583 276.39 16.4795 281.146H43.2012C48.0167 276.494 52.7379 269.153 55.1929 259.332C58.4033 247.029 58.4977 232.762 55.7594 220.459H3.9212Z" stroke="#46133C" stroke-width="3" stroke-miterlimit="10" stroke-linecap="round" stroke-linejoin="round"/>
<path d="M68.412 280.422C75.4938 279.492 78.7041 274.012 74.7384 270.497C72.8499 268.74 64.6351 269.464 61.8969 271.324C58.9697 273.392 62.1801 281.249 68.412 280.422Z" fill="#FFAB91"/>
<path d="M68.412 280.422C75.4938 279.492 78.7041 274.012 74.7384 270.497C72.8499 268.74 64.6351 269.464 61.8969 271.324C58.9697 273.392 62.1801 281.249 68.412 280.422Z" stroke="#46133C" stroke-width="3" stroke-miterlimit="10" stroke-linecap="round" stroke-linejoin="round"/>
<path d="M62.369 264.087C67.94 263.571 72.5668 261.296 71.4337 257.264C70.5839 254.266 63.03 250.647 59.3475 253.852C56.7981 256.127 57.1758 264.501 62.369 264.087Z" fill="#FFAB91"/>
<path d="M62.369 264.087C67.94 263.571 72.5668 261.296 71.4337 257.264C70.5839 254.266 63.03 250.647 59.3475 253.852C56.7981 256.127 57.1758 264.501 62.369 264.087Z" stroke="#46133C" stroke-width="3" stroke-miterlimit="10" stroke-linecap="round" stroke-linejoin="round"/>
<path d="M63.1246 252.198C73.039 253.542 78.7043 246.719 70.8672 241.86C67.3736 239.689 61.0473 238.448 58.4978 241.653C55.9484 244.961 58.7811 251.681 63.1246 252.198Z" fill="#FFAB91"/>
<path d="M63.1246 252.198C73.039 253.542 78.7043 246.719 70.8672 241.86C67.3736 239.689 61.0473 238.448 58.4978 241.653C55.9484 244.961 58.7811 251.681 63.1246 252.198Z" stroke="#46133C" stroke-width="3" stroke-miterlimit="10" stroke-linecap="round" stroke-linejoin="round"/>
<path d="M81.9145 274.736C81.9145 274.736 76.8157 269.36 78.6097 262.02C80.4037 254.679 81.9145 252.405 81.9145 252.405C81.9145 252.405 71.3391 254.576 71.3391 249.924C71.3391 245.271 74.0774 237.828 87.1078 239.999" fill="#FFAB91"/>
<path d="M81.9144 274.736C81.9144 274.736 77.9487 269.567 78.6096 262.02C79.2706 254.679 83.0475 251.991 83.0475 251.991C83.0475 251.991 70.9614 255.61 70.0171 251.061C69.0729 246.512 74.455 236.38 88.9962 240.619" stroke="#46133C" stroke-width="3" stroke-miterlimit="10" stroke-linecap="round" stroke-linejoin="round"/>
<path d="M190.973 178.485C190.973 178.485 194.939 179.415 197.205 176.934" stroke="#46133C" stroke-width="3" stroke-miterlimit="10" stroke-linecap="round" stroke-linejoin="round"/>
<path d="M103.632 308.44C103.632 308.44 111.941 317.951 115.812 322.19C121.006 321.156 117.795 324.671 121.006 321.156C124.216 317.641 147.633 295.827 147.633 295.827L129.693 281.25C129.693 281.146 103.632 302.754 103.632 308.44Z" fill="#FF3B61"/>
<path d="M119.967 318.158C117.229 316.607 107.786 304.407 107.786 304.407C107.786 302.34 111.28 298.101 115.718 293.552C109.486 299.445 103.632 305.752 103.632 308.44C103.632 308.44 111.941 317.951 115.812 322.19C121.006 321.156 117.795 324.671 121.006 321.156C121.478 320.639 122.328 319.812 123.461 318.675C123.177 318.571 122.705 319.605 119.967 318.158Z" fill="#EE406D"/>
<path d="M126.01 316.193C133.847 308.646 147.728 295.723 147.728 295.723L147.633 295.62C141.307 301.616 129.693 312.472 126.01 316.193Z" fill="#EE406D"/>
<path d="M129.693 281.146C129.693 281.146 128.56 282.076 126.86 283.524L144.706 298.101C144.706 298.101 124.405 317.02 119.023 322.5C119.401 322.913 119.212 323.12 121.006 321.156C124.216 317.641 147.633 295.827 147.633 295.827L129.693 281.146Z" fill="white"/>
<path d="M103.632 308.44C103.632 308.44 116.285 326.325 121.006 321.156C124.216 317.641 147.633 295.827 147.633 295.827L129.693 281.25C129.693 281.146 103.632 302.754 103.632 308.44Z" stroke="#46133C" stroke-width="3" stroke-miterlimit="10" stroke-linecap="round" stroke-linejoin="round"/>
<path d="M20.5396 167.113C20.5396 167.113 15.5352 177.244 18.0846 185.308C20.634 193.269 23.2779 197.094 20.5396 202.884" stroke="#46133C" stroke-width="3" stroke-miterlimit="10" stroke-linecap="round" stroke-linejoin="round"/>
</svg>
